<svg width="1098" height="456" viewBox="0 0 1098 456" fill="none" xmlns="http://www.w3.org/2000/svg">
<path fill-rule="evenodd" clip-rule="evenodd" d="M562.492 324.544C561.996 324.418 561.5 324.293 561.02 324.151C561.127 325.543 562.287 325.882 563.446 326.221C564.668 326.579 565.889 326.936 565.879 328.523C565.027 330.753 563.17 331.811 561.382 332.831C559.365 333.981 557.435 335.081 557.133 337.757C556.704 341.559 559.146 342.858 561.809 344.276C563.986 345.435 566.312 346.672 567.338 349.419C566.7 350.715 565.292 351.987 563.837 353.301C560.845 356.004 557.652 358.887 560.535 362.54C559.417 357.969 562.125 356.183 564.735 354.463C566.857 353.064 568.914 351.709 568.795 348.933C568.673 346.059 566.085 344.882 563.546 343.727C561.029 342.582 558.561 341.46 558.591 338.729C558.621 335.948 560.633 334.917 562.724 333.846C565.168 332.594 567.719 331.287 567.338 327.066C566.414 325.535 564.453 325.039 562.492 324.544ZM575.685 344.412C577.81 341.386 580.033 338.222 573.654 337.757C573.458 338.873 574.157 339.093 574.856 339.312C575.512 339.518 576.169 339.725 576.083 340.674C575.768 342.707 574.716 343.519 573.721 344.286C572.755 345.031 571.842 345.735 571.71 347.477C571.496 350.295 573.754 351.781 576.09 353.318C578.467 354.881 580.924 356.498 580.944 359.625C580.954 361.308 580.219 362.245 579.36 363.341C578.516 364.418 577.552 365.647 577.056 367.886C577.331 367.983 577.602 368.143 577.87 368.302C578.569 368.716 579.254 369.121 579.972 368.372C579.18 366.912 579.724 365.844 580.446 364.424C581.262 362.82 582.306 360.767 581.916 357.195C581.185 355.192 579.406 354.191 577.684 353.222C575.681 352.094 573.757 351.011 573.654 348.448C573.611 347.363 574.636 345.904 575.685 344.412ZM547.9 352.822C547.043 350.583 545.022 349.624 543.087 348.706C540.93 347.683 538.88 346.711 538.666 344.075C538.397 340.758 540.861 339.408 543.517 337.952C545.584 336.819 547.768 335.622 548.871 333.385C548.755 331.87 547.476 331.519 546.196 331.169C544.933 330.823 543.67 330.477 543.526 329.011C544.054 329.168 544.601 329.303 545.146 329.437C547.694 330.067 550.18 330.681 550.329 333.385C550.465 335.868 547.799 337.282 545.159 338.683C542.634 340.023 540.131 341.35 540.124 343.59C540.116 345.894 542.602 347.19 544.998 348.437C547.13 349.548 549.19 350.621 549.357 352.336C549.619 355.043 547.305 356.412 545.134 357.695C543.284 358.79 541.538 359.822 541.582 361.569C542.129 363.31 543.664 364.064 545.199 364.817C545.62 365.024 546.04 365.23 546.44 365.457C535.828 365.232 543.606 356.514 547.9 352.822ZM544.753 372.715C548.787 375.324 548.653 384.686 547.668 390.695C547.601 389.282 547.632 387.772 547.662 386.262C547.747 381.987 547.832 377.713 545.726 375.631C545.63 384.61 547.399 395.061 548.988 404.445C549.035 404.722 549.081 404.999 549.128 405.274C549.167 405.504 549.208 405.743 549.251 405.989C549.836 409.355 550.658 414.081 548.156 416.451C547.067 411.539 546.393 406.013 545.724 400.517C544.87 393.508 544.022 386.548 542.324 380.976C541.899 379.579 540.995 377.185 538.922 377.089C539.672 384.588 541.447 391.89 543.133 398.829C544.686 405.216 546.163 411.295 546.697 416.937C544.076 416.958 542.336 417.863 540.597 418.768C540.524 418.806 540.452 418.843 540.38 418.881C542.127 431.175 551.622 442.019 566.136 436.86C566.772 435.943 567.481 435.012 568.209 434.056C571.435 429.819 575.035 425.09 574.396 418.881C573.371 417.089 571.007 416.637 568.642 416.185C567.607 415.987 566.572 415.789 565.65 415.479C570.822 401.857 576.495 386.158 580.228 372.715C576.543 374.207 575.363 378.486 574.208 382.672C573.815 384.099 573.424 385.516 572.938 386.807C572.361 388.343 571.693 389.937 571.014 391.557C569.437 395.322 567.802 399.224 567.107 402.844C566.855 404.154 566.728 405.457 566.605 406.73C566.289 409.972 565.992 413.014 563.705 415.478C563.113 415.426 562.44 415.454 561.767 415.481C560.412 415.538 559.056 415.594 558.36 414.992C559.097 405.729 559.498 397.328 559.898 388.926C560.268 381.158 560.639 373.39 561.275 364.94C557.708 365.821 557.806 370.079 557.906 374.386C557.939 375.808 557.972 377.234 557.873 378.547C557.692 380.959 557.457 383.448 557.229 385.867C556.79 390.513 556.375 394.899 556.415 397.984C558.193 401.133 557.756 405.593 557.303 410.219C557.132 411.969 556.958 413.743 556.901 415.479C555.572 415.275 554.655 415.483 553.738 415.692C552.939 415.874 552.141 416.056 551.07 415.965C550.073 407.159 549.671 397.758 549.269 388.357C549.08 383.932 548.891 379.508 548.64 375.145C547.512 374.012 547.635 372.891 547.743 371.911C547.865 370.802 547.967 369.874 546.21 369.313C545.275 369.705 545.413 370.541 545.535 371.286C545.658 372.036 545.767 372.694 544.753 372.715ZM559.354 381.19C559.123 382.957 558.897 384.688 558.845 386.322C558.22 383.241 558.596 379.17 558.952 375.302C559.114 373.551 559.271 371.842 559.33 370.285C560.335 373.699 559.835 377.521 559.354 381.19ZM542.804 389.065C542.953 389.947 543.102 390.828 543.294 391.667C541.839 389.835 541.434 386.953 541.029 384.071C540.976 383.686 540.922 383.302 540.865 382.92C542.025 384.455 542.414 386.76 542.804 389.065ZM571.966 391.668C572.957 394.935 570.866 399.309 569.536 401.872C568.984 399.809 569.922 397.389 570.824 395.065C571.28 393.888 571.726 392.737 571.966 391.668ZM556.659 417.477C556.517 417.722 556.444 417.848 556.901 418.394C558.059 418.613 558.229 417.843 558.398 417.074C558.491 416.648 558.584 416.223 558.845 415.965C559.906 415.795 560.59 416.001 561.275 416.208C561.959 416.415 562.643 416.621 563.704 416.451C563.684 416.894 563.557 417.215 563.448 417.488C563.26 417.961 563.127 418.295 563.704 418.881C564.556 418.437 565.393 417.978 565.162 416.451C565.84 416.627 566.599 416.724 567.357 416.82C569.473 417.088 571.59 417.357 571.965 419.366C567.674 421.779 562.212 421.596 556.279 421.396C553.953 421.318 551.554 421.237 549.125 421.31C549.269 420.552 548.937 419.806 548.64 419.138C548.21 418.171 547.853 417.369 549.125 416.937C550.202 416.683 550.174 417.536 550.146 418.388C550.125 419.043 550.103 419.699 550.583 419.852C551.689 419.651 551.498 419.002 551.285 418.28C551.097 417.64 550.892 416.944 551.555 416.45H556.901C556.92 417.027 556.769 417.287 556.659 417.477ZM544.476 420.394C543.851 420.121 543.225 419.848 542.323 419.852C542.66 418.044 546.101 417.43 547.669 418.394V420.824C546.157 421.128 545.317 420.761 544.476 420.394ZM572.937 421.31C563.962 423.546 550.341 423.244 541.836 420.824C543.624 439.438 571.448 442.665 572.937 421.31Z" fill="black" fill-opacity="0.07"/>
<path fill-rule="evenodd" clip-rule="evenodd" d="M294.477 336.296C303.669 338.294 294.105 347.237 290.036 352.844C292.654 351.202 297.286 348.818 298.917 353.321C298.897 356.6 295.225 357.705 292.341 360.546C289.946 362.906 289.177 365.726 287.619 368.137C282.495 376.07 273.41 379.157 266.542 370.6C260.463 369.559 256.829 363.103 257.157 358.197C257.417 354.3 260.038 350.622 262.496 346.532C264.864 342.591 265.799 337.969 268.286 335.209C272.026 335.897 272.652 340.004 272.332 342.492C276.241 337.387 278.513 334.412 282.674 329.395C283.704 329.126 284.753 328.994 285.822 328.997C287.215 329.887 288.107 330.84 288.632 331.839C291.872 325.046 299.842 332.701 294.477 336.296ZM292.004 330.214C287.826 334.038 283.183 340.85 279.414 345.793C278.078 347.546 276.712 350.466 275.03 350.144C276.661 347.155 279.265 344.124 282.056 340.464C284.284 337.541 288.955 333.151 286.496 330.91C283.61 328.28 280.422 334.214 278.009 337.378C273.645 343.101 270.222 348.01 267.723 350.867C268.624 346.144 274.254 339.801 268.679 336.559C267.026 339.779 265.38 344.29 262.777 348.495C257.882 356.404 255.637 364.846 265.699 368.908C263.926 365.632 262.457 357.776 266.88 353.372C270.088 350.177 275.689 352.883 276.041 357.21C281.252 356.028 284.075 362.223 281.493 365.913C278.381 370.361 271.474 370.183 268.397 370.965C274.169 377.28 282.272 374.351 286.833 366.837C288.309 364.405 289.176 361.927 290.879 360.131C292.324 358.609 299.198 355.132 297.006 352.563C295.359 350.632 291.804 353.363 290.093 354.635C287.714 356.404 285.761 359.461 283.573 359.456C287.184 353.071 294.427 346.228 297.4 339.924C296.861 339.039 296.145 337.869 294.87 337.646C291.203 339.683 288.181 345.019 284.922 349.294C283.313 351.404 281.916 354.486 279.976 353.915C284.026 346.942 291.742 339.506 295.152 332.614C294.833 331.533 293.207 330.085 292.004 330.214ZM281.212 363.951C282.149 361.661 279.5 356.747 275.873 358.83C275.855 360.213 274.756 363.61 272.725 363.424C268.429 362.082 272.29 358.076 274.636 357.188C274.432 355.527 273.08 353.456 271.039 353.046C264.2 351.672 264.254 367.612 267.386 369.494C270.732 368.96 278.871 369.67 281.212 363.951ZM272.557 362.247C273.997 362.176 274.585 359.885 274.468 358.808C273.452 359.278 271.21 361.046 272.557 362.247Z" fill="black" fill-opacity="0.07"/>
<path fill-rule="evenodd" clip-rule="evenodd" d="M861.603 408.938C859.689 407.07 862.426 401.876 866.687 396.708C866.076 392.464 860.845 389.009 856.891 390.359C856.072 390.719 855.219 392.208 854.274 393.857C852.82 396.394 851.149 399.309 849.052 399.073C848.312 401.829 847.439 403.103 846.451 404.544C845.611 405.769 844.689 407.113 843.696 409.589C829.421 393.823 810.228 412.88 813.675 427.981C816.148 438.812 836.203 451.295 846.264 447.837C853.996 445.179 861.078 434.569 859.547 426.396C859.057 423.779 857.616 422.202 856.093 420.535C854.764 419.081 853.373 417.559 852.498 415.218C853.007 414.766 853.488 414.139 853.969 413.513C855.307 411.768 856.646 410.023 858.584 412.054C859.43 411.375 859.057 410.891 858.683 410.406C858.353 409.978 858.022 409.549 858.536 408.986C858.702 409.059 858.87 409.141 859.038 409.223C859.981 409.683 860.925 410.143 861.603 408.938ZM856.97 401.515C855.665 400.335 854.567 399.343 852.48 398.528C855.462 385.039 871.943 394.866 859.929 403.933C858.671 403.053 857.781 402.248 856.97 401.515ZM851.399 400.018C852.349 402.199 857.217 405.379 859.208 404.926C858.187 403.464 853.349 398.464 851.399 400.018ZM849.958 402.004C849.704 404.039 855.692 407.589 857.767 406.912C856.762 404.389 852.068 402.296 849.958 402.004ZM851.494 406.916C850.523 406.075 849.552 405.233 848.653 404.847C849.923 403.91 851.545 405.187 853.167 406.464C854.39 407.426 855.614 408.389 856.686 408.402C855.325 410.233 853.41 408.574 851.494 406.916ZM823.295 438.751C805.714 424.362 820.731 393.336 843.472 410.943C846.313 406.713 849.777 406.395 854.027 411.021L850.064 416.483C866.449 424.462 853.805 447.294 841.347 447.301C834.756 447.305 827.435 442.138 823.295 438.751ZM836.057 410.338L836.057 410.338C833.361 410.904 829.935 411.623 827.328 414.388C823.723 418.211 822.382 422.906 823.237 427.339C818.271 421.166 831.482 406.214 839.276 409.413C838.489 409.828 837.358 410.065 836.057 410.338ZM842.985 418.927C842.861 419.98 841.887 421.695 840.806 423.598C839.54 425.829 838.127 428.318 837.765 430.3C837.462 426.834 839.742 422.957 842.985 418.927ZM852.371 422.706C856.915 427.044 848.22 441.579 840.617 439.949C847.569 438.861 855.038 429.733 852.371 422.706ZM827.231 408.254C822.591 412.375 815.397 422.888 820.306 428.244C814.36 424.958 820.348 412.226 827.231 408.254ZM836.081 416.95C829.9 419.486 826.692 430.947 831.679 433.464C830.327 431.082 829.207 426.525 830.901 423.045C831.812 421.175 834.099 419.155 835.48 417.936C836.52 417.018 837.045 416.554 836.081 416.95ZM844.571 426.142C846.417 427.755 839.731 439.053 834.347 439.189C834.877 438.712 835.583 438.172 836.376 437.564C839.682 435.032 844.511 431.333 844.571 426.142Z" fill="black" fill-opacity="0.07"/>
<path fill-rule="evenodd" clip-rule="evenodd" d="M1055.77 248C1057.48 249.638 1059.83 250.641 1062.18 251.645C1066.56 253.515 1070.93 255.385 1071.19 261.365C1073.69 259.819 1077.32 259.406 1080.96 258.993C1084.55 258.586 1088.13 258.179 1090.63 256.687C1090.16 260.148 1088.34 264.702 1086.55 269.165L1086.55 269.165C1085.59 271.552 1084.65 273.913 1083.92 276.067C1089.4 277.982 1092.16 284.182 1094.55 289.531C1095.7 292.118 1096.76 294.506 1098 296.115C1096.07 296.196 1094.23 296.358 1092.47 296.513L1092.47 296.513C1086.3 297.056 1081.14 297.511 1076.55 294.11C1074.93 299.953 1069.98 302.473 1065.03 304.994L1065.03 304.994L1065.03 304.994L1065.03 304.994C1063.47 305.787 1061.91 306.579 1060.46 307.475C1060.27 304.371 1058.82 301.996 1057.39 299.662C1055.37 296.371 1053.4 293.16 1055.1 288.096C1049.57 289.441 1046.09 286.621 1042.64 283.828C1040.85 282.373 1039.06 280.924 1037 280.076C1038.44 278.948 1039.69 277.634 1040.95 276.32C1044.05 273.067 1047.15 269.813 1053.09 269.384C1051.54 265.737 1052.71 261.775 1053.95 257.556C1054.85 254.498 1055.79 251.305 1055.77 248ZM1066.49 274.062C1066.56 271.2 1067.37 269.075 1068.18 266.949C1069.09 264.55 1070 262.151 1069.85 258.692C1068.22 256.25 1065.41 254.988 1062.6 253.726C1060.64 252.843 1058.67 251.961 1057.11 250.673C1050.94 263.217 1054.97 273.896 1066.49 274.062ZM1075.88 261.365C1071 262.958 1068.21 266.637 1068.51 273.394C1078.09 285.95 1088.22 268.967 1087.27 259.36C1084.5 260.311 1080.95 260.483 1077.39 260.656L1077.39 260.656L1077.39 260.656L1077.39 260.656L1077.39 260.656L1077.39 260.656L1077.39 260.656L1077.39 260.656C1077.11 260.669 1076.83 260.683 1076.55 260.697C1076.34 262.453 1075.26 263.34 1074.17 264.227C1073.17 265.048 1072.17 265.868 1071.86 267.379C1071.61 264.919 1072.87 263.971 1074.14 263.021C1074.79 262.537 1075.43 262.052 1075.88 261.365ZM1040.35 280.076C1045.52 288.556 1062.43 287.358 1063.81 276.067C1057.13 268.238 1043.63 270.705 1040.35 280.076ZM1065.82 280.745C1068.3 280.761 1070.44 280.446 1070.52 278.072C1070.15 272.631 1062.3 276.709 1065.82 280.745ZM1085.26 278.072C1080.43 278.868 1075.84 279.395 1071.86 279.408C1072.3 280.847 1072.9 282.14 1073.49 283.432L1073.49 283.432C1074.66 285.958 1075.82 288.483 1075.88 292.105C1076.11 292.243 1076.38 292.425 1076.68 292.627C1078.26 293.683 1080.68 295.3 1081.91 294.11C1079.64 293.26 1078.07 291.701 1077.22 289.432C1080.42 293.919 1088.2 297.876 1094.65 293.442C1093.48 291.652 1092.55 289.632 1091.62 287.611L1091.62 287.611C1089.95 283.986 1088.28 280.361 1085.26 278.072ZM1056.44 287.427C1055.53 295.217 1058.43 299.213 1061.33 303.209C1061.72 303.737 1062.1 304.265 1062.47 304.802C1072.15 303.59 1078.04 289.9 1070.52 281.413C1063.32 280.808 1061.06 282.984 1056.48 287.384L1056.44 287.427ZM1060.27 254.1C1060.01 256.163 1060.82 257.99 1061.73 260.006C1062.79 262.376 1063.96 265.006 1063.63 268.588C1057.95 267.752 1057.8 261.744 1057.67 256.436L1057.67 256.436L1057.67 256.436L1057.67 256.436L1057.67 256.435L1057.67 256.435L1057.67 256.435L1057.67 256.435C1057.65 255.634 1057.63 254.849 1057.59 254.1C1058.79 256.194 1058.86 256.006 1059.1 255.389C1059.26 254.959 1059.51 254.319 1060.27 254.1ZM1062.29 267.208C1062.26 262.871 1061.73 259.042 1058.93 257.549C1058.62 262.242 1059.33 265.875 1062.29 267.208ZM1083.45 263.25C1084.19 270.47 1078.53 271.803 1072.07 272.4C1073.15 266.852 1076.92 263.781 1083.45 263.25ZM1082.74 263.904C1077.94 264.94 1074.19 266.937 1073.5 271.746C1078.23 270.654 1082.84 269.45 1082.74 263.904ZM1082.44 270.875C1083.54 272.496 1081.53 273.473 1079.56 274.435C1078.42 274.992 1077.29 275.544 1076.78 276.213C1076.23 275.243 1077.51 274.634 1078.99 273.927C1080.53 273.19 1082.3 272.346 1082.44 270.875ZM1052.98 272.361C1059.82 270.72 1041.61 271.71 1046.11 276.975C1046.3 274.044 1048.62 273.489 1050.93 272.934C1051.64 272.765 1052.34 272.597 1052.98 272.361ZM1060.64 277.985C1058.1 281.648 1052.11 282.881 1046.66 281.546C1047.98 282.271 1049.31 282.91 1050.36 283.413L1050.36 283.413C1053.13 284.738 1053.94 285.126 1047.36 283.682C1046.49 282.192 1045.32 281.006 1043.86 280.122C1046.7 274.961 1056 273.822 1060.64 277.985ZM1045.96 280.122C1050.23 281.593 1057.29 281.101 1059.24 277.985C1056.12 275.705 1046.59 275.535 1045.96 280.122ZM1087.46 283.391C1088 284.455 1088.54 285.52 1089.61 286.125C1088.96 283.625 1086.92 278.904 1084.27 280.267C1086.09 280.666 1086.78 282.029 1087.46 283.391ZM1089.61 292.191C1082.14 292.636 1078.69 288.679 1077.41 282.343C1084.54 281.867 1089.72 287.056 1089.61 292.191ZM1078.7 283.046C1079.39 288.85 1083.47 290.948 1088.97 291.488C1087.54 286.483 1084.33 283.441 1078.7 283.046ZM1067.84 285.419C1070.92 292.086 1067.47 297.633 1063.6 301.375C1060.55 296.339 1062.54 284.447 1067.84 285.419ZM1063.6 298.716C1068.23 298.481 1069.69 288.244 1065.72 286.083C1063.86 289.1 1061.58 294.131 1063.6 298.716Z" fill="black" fill-opacity="0.07"/>
<path fill-rule="evenodd" clip-rule="evenodd" d="M238.464 63.3721C236.447 58.5847 229.257 54.9066 221.661 56.2973C216.358 57.2683 212.673 59.5491 211.049 63.3721C208.529 69.3039 211.064 77.2786 213.26 79.7327C222.807 90.4006 246.178 81.6787 238.464 63.3721ZM237.58 64.2565C244.747 81.3453 221.252 89.5411 213.26 77.964C206.748 68.5319 213.223 58.3587 222.988 57.1816C230.796 56.2407 235.906 60.2645 237.58 64.2565ZM236.975 66.9533C236.523 64.7667 234.918 63.3254 232.956 61.739C229.419 58.8785 225.061 57.8413 220.007 59.5664C212.595 62.0962 210.131 75.5085 218.667 79.5544C228.545 84.2359 239.199 77.7029 236.975 66.9533ZM225.36 63.5359C225.418 62.1575 225.477 60.7791 225.365 59.5664C228.225 59.4725 230.075 60.362 231.924 61.2515C232.266 61.4161 232.608 61.5807 232.956 61.739C232.018 63.5812 230.534 64.8927 229.05 66.2043C227.882 67.2367 226.714 68.2691 225.812 69.5604C225.169 68.031 225.265 65.7835 225.36 63.5359ZM230.054 66.0842C231.236 64.9895 232.418 63.8949 233.403 62.608C235.18 64.0654 236.199 66.2602 236.529 69.1259C233.942 68.6504 231.612 68.9509 229.091 69.276C228.318 69.3757 227.527 69.4777 226.705 69.5604C227.69 68.2735 228.872 67.1789 230.054 66.0842ZM236.529 69.9949C236.147 72.9549 235.012 75.1818 233.849 77.3818C231.32 77.002 227.402 72.1575 226.705 69.9949C227.84 70.0319 229.057 69.8887 230.282 69.7445C232.479 69.4858 234.704 69.224 236.529 69.9949ZM224.977 75.7897C224.97 77.3224 224.963 78.8552 225.365 79.9889C221.647 80.131 218.52 79.6978 217.328 77.3818C218.098 75.6906 219.652 74.7625 221.206 73.8345C222.419 73.1101 223.632 72.3857 224.472 71.2985C224.994 72.452 224.985 74.1208 224.977 75.7897ZM217.944 70.867C220.333 70.9285 222.722 70.9899 224.472 70.4294C223.53 71.6966 222.185 72.5713 220.84 73.446C219.33 74.428 217.821 75.41 216.881 76.9472C215.035 75.847 214.518 73.4533 214.202 70.8639C215.384 70.8012 216.664 70.8341 217.944 70.867ZM223.938 70.0423C220.843 70.3179 217.748 70.5934 214.202 70.4294C213.741 67.1325 214.817 65.3321 215.894 63.5319C216.077 63.2264 216.259 62.9209 216.435 62.608C216.847 62.9064 217.264 63.2007 217.681 63.495C220.283 65.3321 222.886 67.1691 224.472 69.9949C224.294 70.0107 224.116 70.0265 223.938 70.0423ZM221.661 65.8688C219.862 64.5171 218.096 63.1901 217.774 61.739C219.458 60.3359 222.041 59.808 224.919 59.5664V68.6913C224.109 67.7085 222.877 66.783 221.661 65.8688ZM232.51 77.8163C231.482 79.7134 228.815 80.0145 225.812 79.9889C225.998 78.029 225.811 76.4331 225.624 74.8371C225.476 73.573 225.328 72.3089 225.365 70.8639C226.847 71.7958 227.944 73.1018 229.042 74.4078C230.087 75.6518 231.132 76.8957 232.51 77.8163Z" fill="black" fill-opacity="0.07"/>
<path fill-rule="evenodd" clip-rule="evenodd" d="M20.264 29.6945C21.616 30.0581 22.5677 32.5011 23.7179 33.9129C26.1404 33.6457 29.0882 30.6536 30.9734 33.1719C32.2436 35.9046 29.3945 37.8468 31.2991 40.7013C35.1971 38.4487 38.4082 35.8834 41.6827 36.6493C48.0473 38.1374 53.4704 50.6756 52.9113 55.8712C52.7323 57.5329 50.4712 60.8843 50.7581 61.5026C50.9938 62.01 58.8668 64.4987 59.6866 64.9938C71.5327 72.1558 73.0541 83.5993 61.1097 92.6453C52.2189 99.3787 41.8558 102.77 35.5048 94.4872C32.0851 90.0275 31.0628 83.5702 31.0149 79.0475C30.9774 75.5085 32.8375 71.7889 31.7596 67.8124C29.5224 59.5596 19.8448 45.5219 12.8419 46.0483C11.5327 43.6633 13.187 41.8478 15.4041 40.1399C14.4816 38.7777 13.5587 37.4152 12.6362 36.053C12.9517 33.6414 17.0989 29.3278 20.264 29.6945ZM13.9957 34.5361C13.5602 34.9575 14.0515 35.1595 14.5493 35.3535C16.6209 35.0062 18.8763 32.982 20.2763 31.4747C18.9221 29.2752 14.8595 33.3675 13.9957 34.5361ZM16.6314 39.3087C18.8129 37.8311 20.9949 36.3533 23.1765 34.8757C22.5307 33.9223 21.8847 32.9684 21.2389 32.015C20.0175 33.7322 16.7417 35.9509 14.6938 36.4479C15.3396 37.4014 15.9856 38.3552 16.6314 39.3087ZM13.2387 43.9911C13.57 44.5286 13.0977 44.9123 13.6601 45.4942C15.245 46.4959 17.4784 44.1355 19.267 44.0812C18.5851 44.5431 17.9036 45.0047 17.2217 45.4665C20.5835 47.7025 23.667 51.3848 26.7405 55.1156C30.3206 54.4704 32.8793 51.3603 35.1987 49.9831C31.274 45.3188 30.7382 41.3047 28.808 37.0231C25.2578 38.6597 22.9364 43.2885 19.5316 42.7098C23.0759 39.9527 28.29 37.5164 30.7088 34.5434C26.2755 31.6083 17.597 41.205 13.2387 43.9911ZM42.104 38.1524C39.1245 36.9876 30.214 39.3431 33.2489 45.3422C38.8129 41.0808 43.1822 43.0087 46.7017 49.3461C47.2848 53.132 45.3633 56.4377 46.3661 60.3042C47.489 60.014 48.358 61.0398 49.3864 61.2393C54.0635 56.583 50.3772 41.3871 42.104 38.1524ZM44.164 58.8149C48.6151 53.3941 42.9745 39.0747 33.8025 46.1596C37.0029 51.6919 40.7185 54.5532 44.164 58.8149ZM33.2758 69.1701C34.9208 77.8657 28.5833 88.7013 39.3555 96.6484C48.8549 103.657 72.3299 87.6374 68.2551 75.8828C64.0248 63.6801 52.5252 65.9829 44.5853 60.318C40.8915 57.6827 39.7883 55.3472 35.4755 50.3918C32.2111 53.3075 31.3005 54.2503 27.2941 55.933C29.0443 61.2492 32.3991 64.5356 33.2758 69.1701Z" fill="black" fill-opacity="0.07"/>
<path fill-rule="evenodd" clip-rule="evenodd" d="M689.197 1.62004C689.339 2.63309 689.718 3.40976 690.096 4.18645C690.595 5.21072 691.095 6.23504 691.052 7.80162C691.284 7.65457 691.589 7.43655 691.957 7.17441L691.957 7.1744L691.957 7.17438C694.61 5.28094 700.488 1.0859 705.269 4.71083C707.28 10.498 703.683 15.2894 700.324 17.6921C710.627 21.492 708.867 38.95 695.997 35.0005C694.715 34.6069 693.93 33.8008 693.043 32.8899C692.338 32.1658 691.569 31.3754 690.434 30.6734C690.61 51.0597 665.617 36.465 678.689 24.4919C667.436 29.9737 662.994 14.5809 671.271 10.8924C674.02 10.6161 675.776 11.3319 677.452 12.1287C674.293 3.43495 682.438 -3.19417 689.197 1.62004ZM684.252 15.8377C684.857 15.8901 685.347 15.5543 685.88 15.1894C686.698 14.6298 687.615 14.0019 689.197 14.6013C690.468 9.66722 689.751 4.01478 686.725 1.62004C675.369 -0.848881 677.24 15.2306 684.252 15.8377ZM690.434 14.6013C691.287 14.9981 691.846 15.6893 692.406 16.3804C693.044 17.1698 693.683 17.9593 694.761 18.3103C700.228 16.5659 704.318 13.4442 704.651 6.5653C698.623 1.54215 691.031 8.30047 690.434 14.6013ZM668.798 22.0192C671.325 24.0519 677.068 23.2741 680.88 22.7579L680.881 22.7578C681.194 22.7153 681.495 22.6746 681.779 22.6374C681.467 20.5312 682.101 19.3717 682.736 18.2124L682.736 18.2124C682.83 18.04 682.924 17.8676 683.016 17.6921C679.786 11.5235 664.483 10.3781 668.798 22.0192ZM692.288 17.6921C687.86 11.0853 678.403 23.1517 685.488 25.7282C693.273 26.6208 694.486 20.9727 692.288 17.6921ZM704.651 32.5279C708.318 25.3122 701.763 16.1653 694.143 20.1648C694.596 23.1512 693.318 24.4067 692.04 25.6621C691.447 26.2446 690.854 26.8272 690.434 27.5827C692.077 32.2831 698.923 35.6997 704.651 32.5279ZM681.161 24.4919C678.514 27.2019 676.074 30.1196 676.834 36.2369C681.584 43.0898 691.936 37.5022 689.197 27.5827C686.952 27.5246 683.613 26.0706 681.161 24.4919ZM698.47 9.65611C698.839 10.0401 698.253 10.162 697.429 10.3335C695.986 10.6339 693.813 11.0863 694.761 13.3651C692.845 11.408 695.488 8.76597 698.47 9.65611ZM676.853 17.3997C677.206 17.7558 677.559 18.112 678.07 18.3103C678.159 16.1981 674.472 13.9839 673.743 16.4559C675.508 16.0428 676.18 16.7212 676.853 17.3997ZM694.142 26.3464C694.573 26.6992 694.896 27.16 695.219 27.6208C696 28.7351 696.78 29.8496 699.088 29.4372C697.076 31.207 693.715 29.0675 694.142 26.3464ZM679.899 30.4194C680.062 29.6238 680.214 28.8839 679.925 28.2009C678.444 29.7586 678.156 33.572 680.543 34.3824C679.383 32.9377 679.654 31.6155 679.899 30.4194ZM684.252 5.32906C685.311 3.51847 688.758 10.3479 685.488 10.8925C685.485 10.5176 685.492 10.1317 685.499 9.74582V9.74579V9.74576V9.74573V9.7457V9.74567C685.535 7.82201 685.571 5.89798 684.252 5.32906ZM681.586 7.25141C681.564 6.25784 681.547 5.47068 681.161 5.32898C679.323 8.19662 681.922 13.5993 684.252 12.1287C681.684 11.7266 681.627 9.12284 681.586 7.25141ZM699.088 12.1287C700.804 13.6865 696.893 14.8443 695.379 15.2195C695.585 14.3486 696.398 14.0843 697.211 13.8199C698.109 13.5281 699.006 13.2363 699.088 12.1287ZM673.125 20.1647C674.226 21.9864 679.585 21.4097 678.07 19.5466C677.617 20.72 676.287 20.3236 675.117 19.9752C674.132 19.6816 673.261 19.4221 673.125 20.1647ZM697.233 23.8736C698.4 22.7486 700.944 25.4889 700.324 28.2008C699.617 27.8104 699.355 26.9747 699.094 26.139C698.766 25.0918 698.438 24.0445 697.233 23.8736ZM685.488 29.4371C684.831 29.4105 683.918 29.7283 684.87 30.0553C686.055 30.5505 685.635 31.6841 685.239 32.7536C684.873 33.7424 684.526 34.6765 685.488 35.0005C686.417 33.9985 686.417 30.4391 685.488 29.4371Z" fill="black" fill-opacity="0.07"/>
<path fill-rule="evenodd" clip-rule="evenodd" d="M422.57 239.834C434.433 241.141 447.472 230.397 458.36 238.886C477.119 253.51 453.459 279.05 434.087 259.799C428.14 253.891 431.246 248.261 422.57 239.834ZM454.24 255.421C452.441 249.549 449.653 243.812 447.853 237.941C445.68 239.555 443.084 238.083 440.91 239.697C442.215 244.853 445.663 253.926 454.24 255.421ZM462.504 257.474C463.482 250.577 460.238 237.4 449.635 239.292C451.996 245.619 454.702 251.897 456.237 258.339C458.235 257.379 460.633 259.352 462.504 257.474ZM427.7 242.319C432.204 240.243 437.994 247.537 442.875 248.208C441.582 245.725 440.493 243.214 440.234 240.589C436.288 239.151 428.509 240.224 427.7 242.319ZM440.107 262.96C446.726 264.581 457.694 267.131 460.261 258.581C453.807 258.149 442.882 255.922 440.107 262.96ZM450.216 255.178C443.659 250.052 438.224 253.104 432.552 254.423C434.962 256.485 435.024 258.871 437.435 260.934C441.58 258.17 446.212 258.962 450.216 255.178ZM443.09 249.775C438.208 249.104 432.419 241.81 427.914 243.886C430.964 246.392 429.963 249.458 433.013 251.964C435.875 251.233 443.231 253.081 443.09 249.775Z" fill="black" fill-opacity="0.07"/>
<path fill-rule="evenodd" clip-rule="evenodd" d="M936.655 75.9553C934.807 74.9309 931.987 74.7568 929.095 74.6466C925.928 77.4967 923.267 80.9242 917.047 80.2839C922.186 79.5473 928.801 76.0499 925.782 69.9984C919.624 70.5839 915.764 65.9516 916.431 59.3129C924 59.985 926.55 65.0493 927.278 71.708C930.681 65.768 927.174 58.2825 923.136 55.3321C916.408 56.7728 911.667 50.7374 911.408 44.0857C914.206 43.8483 919.073 44.2643 921.293 46.7567C923.538 49.2782 922.389 53.1965 925.113 55.8663C924.233 49.0529 916.931 40.8999 924.097 34.8685C929.097 37.1384 929.613 47.3959 924.686 50.2028C925.2 52.8968 926.032 55.3137 927.01 57.6027C926.762 52.7815 927.545 46.8613 932.994 46.3287C934.551 50.3758 931.997 55.732 928.292 56.4806C927.499 60.4455 929.387 62.0637 929.308 65.4033C932.143 64.8914 930.186 62.1367 930.456 60.2473C931.074 55.9426 933.428 53.0267 938.203 52.7133C938.362 59.0749 936.407 63.0229 931.819 63.9605C929.592 66.8776 929.002 71.6663 927.064 74.9138C931.155 72.4558 934.867 65.2193 938.952 59.6057C941.086 56.6728 944.337 55.2995 942.344 50.9767C941.188 51.3811 939.55 51.2333 937.909 51.0838C934.214 49.4115 935.249 43.6007 933.394 40.3179C931.72 40.2732 930.04 40.2337 929.44 39.2495C929.496 36.0384 933.919 35.0857 936.039 36.8716C936.125 38.5513 935.399 39.3031 934.249 39.5699C936.492 43.2673 934.061 51.0552 941.169 50.4959C939.539 47.7707 936.67 46.1301 936.493 42.1344C937.641 40.7832 940.669 41.5452 940.848 43.2295C941.139 45.143 939.79 45.1828 939.058 45.9278C939.905 49.2114 944.21 49.4697 943.76 53.8885C945.922 53.298 947.801 51.2794 946.538 48.4386C945.879 46.957 943.396 46.7561 942.344 44.9392C940.886 42.421 942.132 40.8348 941.195 38.0201C939.548 37.4491 937.937 36.8459 937.348 35.3488C937.834 33.4604 939.153 32.5243 941.542 32.8107C944.217 35.6728 940.04 44.3337 945.469 46.3549C943.286 41.7328 948.784 36.9607 947.553 33.2111C948.841 32.7556 951.285 32.7534 951.934 33.9055C951.88 34.707 951.827 35.5084 951.774 36.3099C948.354 37.0013 945.895 38.7921 946.057 43.5765C951.02 43.3545 953.157 39.903 954.632 35.6953C957.028 35.6118 958.395 36.4278 958.052 38.7406C957.661 38.7255 957.708 39.2104 957.598 39.5154C952.198 38.4195 952.164 44.7674 946.404 44.4047C946.253 47.3047 948.104 48.4516 947.527 51.7245C949.753 51.2497 951.472 50.1954 953.698 49.7206C954.782 46.13 952.397 45.5759 951.694 43.5496C951.958 42.1262 953.1 41.7064 954.632 41.7328C956.059 44.2243 953.368 44.7265 954.633 47.7704C956.87 45.1522 957.494 40.691 961.204 39.7556C964.015 40.4766 962.085 44.3787 960.456 44.9383C959.228 44.7559 959.324 43.4139 958.586 42.8012C956.89 44.169 956.968 47.5641 955.354 49.0259C958.574 49.8313 959.488 48.0005 960.75 46.5679C963.397 46.1606 962.927 50.259 961.659 51.056C959.172 48.8525 954.841 50.2005 951.988 51.2167C954.41 52.8226 956.693 50.5645 959.254 50.8958C960.151 52.0725 959.95 53.4408 958.64 54.0749C961.325 54.9867 960.581 51.9803 963.155 52.7656C964.195 53.5425 964.093 56.2228 962.514 56.3455C958.388 53.0768 955.084 56.5371 952.309 58.4831C955.295 62.1749 960.678 59.4428 962.861 57.1736C965.315 57.009 965.713 60.6053 964.171 61.6883C961.074 60.8034 959.97 59.9438 956.957 61.2078C959.195 63.0236 961.209 65.035 963.85 66.497C965.501 66.8026 964.632 64.2287 966.014 64.2261C968.305 64.4851 969.302 65.8765 968.953 68.447C968 68.5078 968.115 69.789 966.869 69.5156C965.615 69.3552 964.992 68.6427 964.999 67.3785C958.295 65.4459 955.587 60.0176 948.702 58.2428C948.379 62.7011 952.854 67.7367 959.442 66.2033C960.249 67.2174 960.925 68.7626 959.977 70.264C959.034 70.1923 958.751 70.8758 957.546 70.5045C956.901 69.8107 956.662 68.762 956.958 67.2453C955.141 66.8228 953.036 66.6516 951.401 66.0701C951.609 67.6485 951.887 69.1671 952.737 70.1841C954 70.3343 954.148 69.2083 955.595 69.5696C956.25 70.506 957.065 71.3024 956.557 73.2562C955.691 74.0473 953.454 74.8945 952.096 73.764C951.571 70.6426 949.353 59.1435 946.325 57.6819C939.13 54.2092 935.205 70.2804 929.976 73.4978C934.385 74.795 938.042 71.5059 940.341 68.9558C938.818 64.8435 940.703 60.0428 945.337 60.4336C947.706 68.3573 939.658 70.9587 935.186 73.8449C935.24 74.6773 936.654 74.3214 936.708 75.1538C942.328 72.431 948.887 76.5042 950.841 80.5228C947.274 84.7107 935.925 82.3362 936.655 75.9553ZM948.864 79.9886C947.582 76.6385 942.097 74.0369 937.884 75.6346C939.623 78.7669 945.648 78.1479 948.864 79.9886ZM937.376 77.2108C938.428 80.6591 945.822 83.6919 949.238 80.4161C944.895 79.9372 940.571 77.4381 937.376 77.2108ZM955.889 71.1992C955.445 71.0847 955.295 70.7128 955.141 70.3443C953.647 70.5052 952.948 71.5756 952.55 72.9892C953.903 74.1138 955.959 73.0601 955.889 71.1992ZM925.461 68.7695C925.554 64.4086 922.66 60.658 918.301 61.45C922.111 62.6448 921.015 68.1316 925.461 68.7695ZM924.633 69.1168C920.729 68.0022 920.677 61.5128 917.099 61.3699C917.765 65.3181 920.433 69.5188 924.633 69.1168ZM958.187 66.9247C957.556 67.5207 957.148 70.0514 958.801 69.7831C959.962 69.0913 959.999 66.9939 958.187 66.9247ZM944.455 61.5824C941.026 61.1406 939.546 66.1879 941.597 68.2345C942.155 66.1327 942.678 61.7192 944.402 62.3838C943.445 63.4588 941.77 65.9727 942.826 67.9138C944.273 66.7142 946.031 63.6805 944.455 61.5824ZM966.361 65.0543C965.196 66.2071 965.852 67.0317 966.121 68.6608C969.046 69.2207 968.478 65.1703 966.361 65.0543ZM936.093 54.1827C932.647 54.8886 931.172 58.5086 931.525 62.331C934.436 61.2011 933.949 56.1889 936.093 54.1827ZM933.101 62.8385C935.286 61.3064 938.103 58.21 936.894 54.2361C935.419 56.5786 933.383 60.5674 933.101 62.8385ZM964.251 60.4862C964.264 59.2168 964.129 58.0775 962.808 57.975C960.466 58.556 962.28 61.8099 964.251 60.4862ZM951.534 58.029C954.196 57.6058 954.464 53.9488 958.266 53.6475C953.452 51.222 945.607 51.7262 942.772 56.6402C946.112 55.2616 949.333 58.379 951.534 58.029ZM932.032 48.6797C931.073 50.4661 929.095 53.3623 929.575 55.3585C930.466 53.4951 933.257 51.5269 932.032 48.6797ZM922.842 53.7025C922.196 49.1095 919.644 44.1767 913.732 45.448C918.549 46.392 917.947 54.0847 922.842 53.7025ZM912.503 45.7687C913.329 50.4569 916.358 55.2238 921.988 54.4505C917.323 53.1222 917.337 45.6918 912.503 45.7687ZM932.112 47.4775C929.457 47.7575 926.839 52.1672 928.8 54.9044C929.294 51.7322 930.935 49.8696 932.112 47.4775ZM962.701 53.5404C961.461 53.2735 961.363 54.3114 961.365 55.4639C961.766 55.4906 962.167 55.5173 962.567 55.544C963.117 55.0521 963.18 54.1008 962.701 53.5404ZM925.166 36.9522C925.176 39.9358 923.714 45.8566 925.193 48.6266C927.55 46.1085 928.229 38.8669 925.166 36.9522ZM960.697 47.3694C960.254 48.359 960.253 49.622 961.312 50.2278C962.023 49.5604 962.089 47.3305 960.697 47.3694ZM923.99 36.4714C920.89 38.4295 920.998 46.9681 924.071 47.3443C923.834 44.546 924.779 39.7604 923.99 36.4714ZM939.966 44.3783C940.196 42.7932 939.341 42.1583 937.695 42.2145C937.105 44.0882 938.567 45.4133 939.966 44.3783ZM954.178 42.5076C953.046 42.5078 952.424 43.0907 952.442 44.4044C952.843 44.4311 953.243 44.4578 953.644 44.4845C954.011 44.0417 954.244 43.4454 954.178 42.5076ZM961.551 40.5838C960 40.536 959.806 42.0384 959.735 43.6828C961.701 44.2662 962.365 41.8282 961.551 40.5838ZM935.184 37.6196C933.412 36.3685 930.916 37.4846 930.268 38.9022C931.949 40.049 934.526 39.0244 935.184 37.6196ZM954.552 36.8975C954.071 38.5761 955.398 38.6729 956.85 38.6605C957.267 37.0316 955.651 36.0465 954.552 36.8975ZM941.862 34.0396C940.444 33.1863 938.674 33.6049 938.55 35.4289C939.146 36.1649 939.666 36.9683 941.275 36.8179C941.861 36.3382 941.787 35.1036 941.862 34.0396ZM951.026 35.455C951.11 33.9979 949.965 33.6162 948.327 33.6653C947.965 34.88 947.996 34.4168 948.194 35.6689C949.259 35.7354 950.472 35.9728 951.026 35.455Z" fill="black" fill-opacity="0.07"/>
<path fill-rule="evenodd" clip-rule="evenodd" d="M476.014 34.7453C475.443 41.3669 468.791 41.7551 466.985 46.69C463.734 55.5751 464.971 73.4843 469.995 79.5379C473.474 83.7311 480.308 84.7971 477.218 90.8853C459.072 92.3282 434.587 92.4142 416.42 90.8853C414.517 84.9524 419.461 81.8892 423.644 80.1351C427.143 72.5031 429.547 57.8917 426.653 47.8845C424.845 41.6291 418.794 40.7099 417.624 35.9398C417.624 35.5415 417.624 35.1437 417.624 34.7453C435.692 33.7516 457.946 33.7516 476.014 34.7453ZM419.43 35.9398C425.026 47.5381 468.672 47.4551 474.209 35.9398C456.541 35.0917 437.098 35.0917 419.43 35.9398ZM424.848 80.7324C431.254 74.3497 434.156 51.2087 426.653 43.7039C430.682 53.6771 429.913 72.6578 424.848 80.7324ZM468.791 81.3296C465.434 75.018 463.414 62.0855 464.577 52.0651C464.942 48.9189 467.38 45.6269 465.781 43.7039C460.4 53.5355 462.352 74.201 468.791 81.3296ZM427.857 80.7324C431.3 80.3029 433.235 81.369 436.285 81.3296C436.47 78.3285 435.59 74.2697 437.489 72.9683C440.499 72.9683 443.508 72.9683 446.518 72.9683C442.954 68.3541 442.486 60.0418 449.528 58.6347C449.613 61.8562 451.726 63.6341 451.334 66.3987C450.929 69.2553 447.723 69.7719 447.722 72.9683C450.844 73.2556 455.193 72.3251 457.354 73.5655C456.01 76.0477 457.842 77.9982 457.354 81.3296C460.118 80.8876 463.56 81.117 465.781 80.1351C460.329 70.7717 461.206 54.8936 462.771 44.3011C453.754 46.1824 439.319 46.0217 430.265 44.3011C433.393 55.6097 432.347 71.7953 427.857 80.7324ZM445.314 68.1904C447.854 69.1179 445.182 64.874 447.722 65.8015C448.068 66.8514 446.994 69.3103 448.324 69.3849C451.132 67.2785 449.86 62.4415 447.722 60.4264C446.235 62.3865 443.655 64.9134 445.314 68.1904ZM438.091 74.76C436.884 76.9548 438.036 78.7758 438.091 81.3296C443.91 81.3296 449.729 81.3296 455.548 81.3296C456.226 80.2211 455.12 76.8909 455.548 74.1628C449.121 73.7585 444.08 74.7296 438.091 74.76ZM453.14 82.5241C437.862 82.5241 417.121 78.3058 417.624 90.2881C434.687 89.615 459.777 91.5978 476.014 89.6909C477.717 80.2808 463.616 82.5241 453.14 82.5241Z" fill="black" fill-opacity="0.07"/>
<path fill-rule="evenodd" clip-rule="evenodd" d="M69.0806 365.385C69.9816 367.616 69.867 369.669 69.0806 371.833C73.3589 374.866 79.3865 376.286 81.192 380.861C82.8318 385.015 81.6051 393.795 80.7594 398.056C79.7365 403.21 76.7043 412.179 73.8386 415.681C67.9867 422.832 43.8568 422.424 37.9369 416.541C35.0125 413.634 31.7065 404.357 30.5836 399.775C29.4313 395.073 28.1734 386.093 29.7185 381.72C33.0379 372.326 47.9483 369.746 59.1319 370.543C59.4905 366.014 64.4687 361.71 69.0806 365.385ZM57.4017 382.58C57.2296 380.955 58.8499 378.889 57.8343 377.851C56.5206 381.991 55.3177 386.24 54.3739 390.748C56.8251 390.748 59.276 390.748 61.7272 390.748C64.6253 383.741 67.5818 376.792 68.648 367.964C65.9134 368.017 63.2403 368.989 61.2947 367.534C60.9097 370.454 58.4398 373.574 59.1319 376.132C59.9503 373.793 60.5442 371.23 62.1598 369.684C59.882 373.295 59.3235 378.615 57.4017 382.58ZM61.7272 366.675C63.37 367.411 67.545 367.429 68.648 366.245C67.4836 364.595 62.2562 364.161 61.7272 366.675ZM76.8665 384.3C77.1978 380.42 72.1435 377.756 67.7829 376.562C67.0934 382.038 64.7412 385.862 63.0249 390.318C68.6558 389.559 76.4625 389.029 76.8665 384.3ZM73.8386 378.281C86.8459 387.532 63.7014 392.172 52.6437 391.608C45.9257 391.265 34.073 389.952 33.6114 384.3C33.0011 376.83 47.3804 374.031 52.6437 373.553C54.5179 373.382 57.9835 374.996 58.6994 371.833C51.388 371.17 46.0282 371.392 40.5322 373.553C37.892 374.59 30.1208 379.559 30.151 383.87C30.2129 392.544 45.8422 394.262 55.6715 394.187C71.3696 394.067 89.551 387.101 75.5688 376.992C73.7733 375.693 70.1213 371.96 68.648 374.842C68.4901 377.212 72.057 377.014 73.8386 378.281ZM34.044 384.3C34.5111 390.066 46.0788 390.308 53.5088 390.748C54.4807 384.836 56.21 379.676 57.8343 374.412C48.3242 373.343 33.5444 378.131 34.044 384.3ZM35.3416 392.037C33.3731 391.052 32.3769 388.635 30.5836 389.028C30.9487 397.6 34.1318 409.549 37.0718 413.961C42.39 421.942 68.0014 422.637 73.8386 413.961C78.4297 407.138 79.3809 398.031 80.3269 388.598C74.3681 395.382 46.3682 397.555 35.3416 392.037Z" fill="black" fill-opacity="0.07"/>
</svg>
