<svg width="178" height="177" viewBox="0 0 178 177" fill="none" xmlns="http://www.w3.org/2000/svg">
<path d="M6.98072 156.52C6.98066 129.19 6.96814 102.357 6.99939 75.5238C7.00284 72.574 7.16526 69.9661 3.10419 69.3123C0.69077 68.9238 0.112308 66.3904 0.104282 64.1066C0.0751071 55.7738 -0.1535 47.4309 0.176212 39.1109C0.477695 31.5044 5.09873 27.456 12.8709 27.2959C17.0359 27.21 21.2079 27.1482 25.3691 27.295C28.386 27.4014 29.8551 26.5554 30.1179 23.187C30.4394 19.0646 31.4311 14.9827 33.2533 11.1714C38.8708 -0.57827 50.0609 -3.4128 60.5451 4.35545C65.23 7.82682 69.88 11.3536 74.408 15.0251C76.7543 16.9275 78.8114 17.2187 81.6674 15.9242C89.0502 12.5776 96.6248 12.7662 103.845 16.3961C106.543 17.7525 108.347 17.4908 110.552 15.6969C115.204 11.9134 119.975 8.27207 124.772 4.67203C136.032 -3.77889 147.779 -0.509971 153.048 12.5013C154.428 15.9087 155.638 19.3993 155.547 23.1195C155.475 26.0799 156.611 27.1635 159.623 27.3367C176.142 28.2867 177.544 29.8473 177.541 46.3296C177.541 52.1629 177.508 57.9963 177.538 63.8293C177.551 66.3478 177.014 69.0183 174.368 69.3899C170.121 69.9861 170.569 72.7467 170.57 75.5913C170.579 103.591 170.576 131.591 170.576 159.591C170.576 161.257 170.598 162.924 170.569 164.59C170.44 172.037 165.891 176.677 158.321 176.722C143.155 176.812 127.988 176.744 112.821 176.744C82.3216 176.743 51.8218 176.743 21.3221 176.742C10.355 176.741 7.01444 173.427 6.98505 162.516C6.98011 160.683 6.98224 158.85 6.98072 156.52ZM43.1785 89.8926C40.9711 90.3103 38.803 90.5511 37.5202 88.104C36.394 85.9557 37.6193 84.2845 38.707 82.5882C41.3407 78.4807 45.0079 75.0355 47.322 69.8884C37.3124 69.8884 28.0133 69.9086 18.7144 69.8767C15.7145 69.8664 15.1911 71.7184 15.1852 74.155C15.1129 103.785 15.0871 133.415 14.8755 163.045C14.8409 167.892 16.7512 169.375 21.435 169.32C38.4192 169.118 55.4089 169.096 72.3922 169.326C76.8351 169.386 78.0586 167.968 78.0226 163.619C77.8297 140.306 77.9248 116.991 77.9205 93.6759C77.92 90.6053 77.9204 87.5346 77.9204 84.464C74.539 89.5153 71.9438 94.6873 69.2845 99.8261C68.2143 101.894 67.2054 104.131 64.2009 103.786C61.1825 103.44 60.7713 100.932 60.1298 98.7503C56.4285 86.1665 56.4522 86.1596 43.1785 89.8926ZM106.577 161.887C107.093 164.879 104.702 169.34 110.901 169.277C126.048 169.125 141.198 169.239 156.346 169.201C160.762 169.19 163.018 167.184 162.942 162.447C162.778 152.129 162.898 141.806 162.899 131.485C162.899 112.674 162.917 93.8632 162.865 75.0525C162.859 73.0555 163.68 70.1043 160.409 70.0025C153.031 69.7729 145.641 69.9304 137.936 69.9304C138.37 71.269 138.422 71.7971 138.684 72.1815C140.935 75.4786 143.185 78.7781 145.517 82.0178C146.921 83.9681 148.416 85.9809 146.948 88.3699C145.277 91.0906 142.581 90.1769 140.165 89.6305C138.385 89.2282 136.672 88.5436 134.903 88.0852C127.947 86.2827 127.946 86.2982 125.942 93.4183C125.536 94.8586 125.114 96.2944 124.679 97.7263C123.927 100.206 123.874 103.329 120.423 103.731C116.671 104.168 115.952 100.883 114.674 98.4678C112.175 93.7445 109.772 88.9702 107.329 84.217C107.078 84.3234 106.827 84.4298 106.575 84.5362C106.575 110 106.575 135.464 106.577 161.887ZM98.8964 82.0434C99.3244 72.561 99.474 63.1506 91.9186 55.3606C89.3862 60.3899 85.6975 64.7748 85.6796 70.5167C85.5813 101.973 85.6162 133.429 85.6207 164.886C85.6209 166.19 85.2531 167.972 86.5975 168.54C89.9067 169.94 93.551 169.611 96.8861 168.905C100.001 168.245 98.8434 165.068 98.849 162.93C98.9192 136.301 98.8961 109.671 98.8964 82.0434ZM112.794 24.6045C112.452 26.7239 113.773 27.1917 115.455 27.235C117.616 27.2904 119.779 27.2586 121.939 27.3329C124.489 27.4206 126.806 28.3346 127.002 31.1136C127.231 34.3669 124.621 35.2065 121.976 35.3832C119.501 35.5484 117.006 35.4185 114.52 35.4185C120.2 39.688 125.831 43.2245 131.647 46.4269C137.549 49.6773 142.339 48.156 145.129 41.9739C149.313 32.7027 149.231 23.1919 145.064 13.9605C142.032 7.24265 136.371 5.98045 130.364 10.4508C124.503 14.8122 118.854 19.4587 112.794 24.6045ZM69.1765 37.5541C69.6838 37.1703 70.1911 36.7864 70.8875 36.2595C67.9163 34.1827 64.8903 35.795 62.0649 35.3935C59.7499 35.0645 57.7598 34.2824 57.7464 31.5054C57.7336 28.85 59.4324 27.6077 61.8586 27.4093C64.1747 27.2199 66.512 27.2912 68.8398 27.2408C70.211 27.2111 71.5058 27.0808 72.0679 25.4916C72.6434 23.8645 71.6313 22.992 70.5612 22.1633C65.3019 18.0902 60.1698 13.8329 54.7206 10.0306C49.0387 6.06577 43.7057 7.5181 40.8168 13.8793C36.6286 23.1016 36.5163 32.6065 40.6059 41.8949C43.3867 48.2106 47.9066 49.6601 53.9939 46.4219C58.9817 43.7686 63.7723 40.7446 69.1765 37.5541ZM30.2549 36.7403C24.8914 34.0657 19.1815 36.0036 13.652 35.5163C9.91129 35.1867 8.18195 36.998 8.27292 40.8323C8.40293 46.3102 8.42804 51.7974 8.2576 57.2731C8.14484 60.8959 9.49421 62.2569 13.2031 62.1957C23.9961 62.0178 34.8333 61.5797 45.5772 62.33C53.5374 62.8858 57.278 58.8715 60.5367 52.1897C59.0323 52.9275 58.0367 53.4239 57.0343 53.906C47.7014 58.3951 39.1765 55.7171 34.1155 46.7475C32.4637 43.8202 31.5929 40.6202 30.2549 36.7403ZM152.27 45.809C149.652 50.9826 145.823 54.7065 139.928 55.7628C134.21 56.7875 129.179 54.5467 124.228 51.8478C125.696 54.5783 127.368 56.8537 128.932 59.2007C130.236 61.1575 131.895 62.1777 134.327 62.1626C144.826 62.0974 155.325 62.0709 165.824 62.1466C168.915 62.1689 169.926 60.7098 169.871 57.8511C169.786 53.5199 169.865 49.1856 169.861 44.8526C169.854 35.7149 169.308 35.2764 160.328 35.4173C157.03 35.4691 154.932 36.349 154.39 39.9444C154.123 41.7171 153.195 43.3902 152.27 45.809ZM101.217 54.2195C106.822 65.293 112.426 76.3665 118.276 87.9239C123.354 77.8493 123.354 77.8493 133.249 78.7293C124.548 66.7499 116.352 55.4644 108.2 44.2414C104.72 45.9713 101.94 47.3528 99.1885 48.7202C99.1801 50.7257 100.182 52.1053 101.217 54.2195ZM70.8735 52.6313C64.5798 61.1234 58.286 69.6155 51.9923 78.1076C51.8961 78.6175 51.7999 79.1274 51.7037 79.6372C61.4142 74.404 64.2213 80.0634 65.8314 89.1211C73.1111 74.61 79.5226 61.8295 85.9402 49.0369C75.3929 44.0222 78.001 43.099 71.5963 51.6538C71.4968 51.7867 71.4029 51.9239 70.8735 52.6313ZM79.5551 32.6922C80.4571 38.373 84.9032 40.17 89.5542 40.9812C94.8224 41.9001 99.9729 40.9698 103.513 36.3438C105.592 33.6269 105.727 30.4382 104.249 27.3567C102.117 22.9113 95.1784 20.6465 88.2496 21.9949C82.9534 23.0256 80.0876 26.2786 79.5551 32.6922Z" fill="black"/>
<path d="M23.4788 133.5C26.7839 132.985 28.4663 134.26 28.5003 137.153C28.5861 144.465 28.5491 151.778 28.51 159.09C28.4976 161.403 27.3638 162.957 24.936 163.012C22.8498 163.059 21.1666 161.844 21.1361 159.812C21.0165 151.849 21.1205 143.88 21.3021 135.918C21.3197 135.147 22.4469 134.4 23.4788 133.5Z" fill="black"/>
<path d="M28.4355 122.611C28.2279 125.682 26.7212 126.986 24.1333 126.626C22.3073 126.372 21.2429 125.019 21.0897 123.163C20.9503 121.474 21.8291 120.194 23.3502 119.65C25.8081 118.77 27.5536 119.687 28.4355 122.611Z" fill="black"/>
</svg>
