<svg width="177" height="169" viewBox="0 0 177 169" fill="none" xmlns="http://www.w3.org/2000/svg">
<path d="M100.255 6.02898C111.645 -3.3986 119.483 -1.98686 124.056 13.2526C128.559 28.2589 129.047 28.1129 144.661 28.4884C145.327 28.5044 146.003 28.5785 146.658 28.4936C158.163 27.0008 164.02 34.5934 159.529 45.566C157.834 49.7053 157.02 54.1975 155.468 58.4044C154.278 61.6288 155.15 63.653 157.857 65.5448C162.358 68.6914 166.729 72.0331 171.06 75.4146C177.738 80.6289 177.748 87.7464 171.072 92.9983C166.624 96.498 162.121 99.9415 157.493 103.196C154.915 105.008 154.268 106.847 155.349 109.917C157.335 115.554 159.019 121.313 160.52 127.102C162.363 134.207 158.25 139.764 150.891 140.095C144.905 140.364 138.899 140.323 132.905 140.223C130.144 140.177 128.637 141.201 127.792 143.852C126.074 149.241 124.203 154.586 122.243 159.893C119.047 168.547 112.604 170.692 104.989 165.632C100.413 162.592 95.8647 159.493 91.4785 156.188C89.0923 154.391 87.1577 154.411 84.7976 156.135C80.2282 159.473 75.5755 162.705 70.8607 165.835C63.7407 170.563 57.191 168.51 54.0972 160.498C52.0596 155.221 50.258 149.847 48.5508 144.452C47.6047 141.463 45.9005 140.162 42.7295 140.228C37.0695 140.347 31.4016 140.287 25.7413 140.139C17.9164 139.935 13.5345 134.167 15.5626 126.68C17.0406 121.224 18.6805 115.805 20.4412 110.433C21.5062 107.184 21.1081 104.9 18.0091 102.83C13.4487 99.7846 9.13959 96.3394 4.88045 92.8717C-1.74832 87.4745 -1.59974 80.6106 5.17471 75.2945C9.62903 71.7991 14.0678 68.2681 18.7075 65.0311C21.2265 63.2737 21.5722 61.4597 20.6629 58.6942C18.7939 53.009 17.0535 47.269 15.5726 41.4717C13.6894 34.0992 18.0079 28.7427 25.6571 28.5041C31.479 28.3224 37.2966 27.9015 43.1182 27.8566C46.1274 27.8334 47.6677 26.5133 48.5585 23.8056C50.1706 18.9058 51.8738 14.0342 53.6329 9.18488C57.1561 -0.527557 63.3294 -2.56054 71.7408 3.19674C76.0003 6.11227 80.3316 8.94172 84.4131 12.0916C86.8821 13.9971 88.8068 14.4076 91.3737 12.255C94.0416 10.0178 97.0861 8.22982 100.255 6.02898ZM144.568 105.157C143.921 101.95 145.996 100.296 148.194 98.6403C154.377 93.982 160.522 89.274 167.183 84.2051C161.035 79.5076 155.655 75.3613 150.237 71.2655C143.571 66.2266 143.493 66.0147 145.96 57.9233C147.888 51.6017 149.785 45.2708 151.858 38.4051C144.507 36.5279 137.669 37.3783 130.93 37.227C122.499 37.0377 122.487 37.1614 119.577 29.132C118.67 26.628 117.885 24.0791 116.949 21.5864C115.454 17.6076 114.625 13.3486 112.061 9.17489C105.928 13.4541 99.8416 17.2183 94.3327 21.6937C89.6836 25.4706 85.9993 25.0112 81.5259 21.522C75.9583 17.1794 69.9505 13.4011 63.575 8.99344C60.8729 16.7156 58.196 23.5199 56.1436 30.5077C54.596 35.777 51.5731 37.6431 46.2453 37.2704C41.2732 36.9226 36.2495 37.1707 31.2551 37.3453C29.0226 37.4234 26.5562 37.0788 24.4729 39.3493C26.4125 45.7292 28.4279 52.2136 30.3516 58.725C32.5726 66.2422 32.3941 66.4768 26.0934 71.1668C20.5398 75.3006 15.1024 79.5903 9.01913 84.2684C15.6736 89.3352 21.4763 94.0325 27.5804 98.2984C31.3563 100.937 32.2126 103.858 30.8071 108.14C28.4894 115.201 26.5537 122.387 24.2347 130.276C32.1102 130.703 39.3518 131.563 46.5597 131.339C52.3503 131.158 54.9618 133.445 56.446 138.778C58.2994 145.437 60.878 151.896 63.0462 158.16C65.8695 158.389 67.2113 156.991 68.6861 155.982C73.4979 152.688 78.366 149.462 83.0167 145.951C86.4312 143.373 89.4121 143.148 92.913 145.837C97.6653 149.486 102.666 152.814 107.593 156.233C112.105 159.365 112.761 159.163 114.506 154.152C116.477 148.492 118.607 142.875 120.264 137.124C121.501 132.831 124.012 131.467 128.31 131.43C135.903 131.364 143.491 130.752 151.548 130.345C150.021 121.567 146.654 113.922 144.568 105.157Z" fill="black"/>
<path d="M84.4352 88.1004C87.0685 91.0636 89.6901 93.6368 91.9388 96.5027C93.2133 98.127 95.9516 100.276 92.9021 102.313C90.3767 103.999 87.2098 105.583 84.4151 102.255C82.491 99.9632 80.6367 97.6041 78.5858 95.4313C77.4938 94.2745 76.1115 92.7109 74.3151 93.8851C72.6498 94.9737 73.8944 96.5986 74.2438 97.9709C74.6533 99.5794 75.0207 101.216 75.6299 102.753C76.8528 105.836 76.1658 107.955 72.8423 108.888C69.5694 109.806 67.5383 108.844 66.5204 105.317C64.0329 96.6968 61.3952 88.1152 58.58 79.5968C57.3215 75.7887 58.6791 73.9533 62.2262 73.0103C65.2732 72.2003 68.3071 71.3329 71.3188 70.4006C76.0276 68.943 80.4385 69.5129 83.5709 73.3953C86.5783 77.1228 87.307 81.4855 84.6105 85.9375C84.2998 86.4504 84.3724 87.1955 84.4352 88.1004ZM74.6361 84.8122C76.7906 83.3378 77.3865 81.5241 75.5754 79.4287C74.1794 77.8135 72.3032 77.9265 70.5748 78.7227C67.7524 80.0229 69.6513 82.0755 69.9858 83.8155C70.5234 86.6115 72.2785 86.0018 74.6361 84.8122Z" fill="black"/>
<path d="M129.93 75.4282C128.218 80.9811 129.872 82.8945 134.791 81.5509C136.553 81.0696 138.302 80.5398 140.053 80.02C142.27 79.3618 143.588 80.361 144.236 82.3863C144.874 84.3819 145.277 86.4832 142.631 87.3319C137.423 89.0026 132.202 90.6524 126.92 92.0643C124.356 92.7499 122.877 91.0769 122.168 88.7585C119.445 79.8683 116.724 70.9777 114.064 62.0688C113.209 59.2057 114.167 57.2559 117.195 56.375C121.817 55.0306 126.424 53.6272 130.993 52.1158C133.791 51.1901 134.952 52.5703 135.774 54.9225C136.618 57.336 135.663 58.7056 133.476 59.5953C130.729 60.7127 127.636 60.8894 124.937 62.7381C124.714 66.937 126.3 68.5798 130.543 66.9088C131.62 66.4844 132.763 66.2178 133.889 65.9286C136.2 65.3352 137.348 66.7204 137.961 68.5946C138.648 70.6911 138.441 72.5731 135.915 73.3916C134.022 74.0052 132.136 74.6449 129.93 75.4282Z" fill="black"/>
<path d="M108.155 81.9211C106.233 82.5753 104.68 83.1078 103.216 83.6102C103.615 90.5637 104.015 90.8602 110.211 89.0696C111.489 88.7002 112.761 88.3063 114.041 87.9464C116.48 87.2613 117.749 88.4407 118.569 90.6262C119.451 92.9759 118.809 94.5677 116.468 95.3272C111.568 96.9168 106.658 98.4811 101.712 99.9194C98.938 100.726 97.365 99.4033 96.5568 96.6963C93.8465 87.6188 91.0588 78.5641 88.2514 69.516C87.4549 66.9492 88.3003 65.2272 90.759 64.4239C95.6555 62.824 100.583 61.3165 105.519 59.8414C108.019 59.0941 109.274 60.6039 109.954 62.6973C110.682 64.9399 109.962 66.4577 107.646 67.4169C104.768 68.6087 101.473 68.79 98.9243 70.8555C99.033 74.9628 100.75 76.2644 104.682 74.796C106.319 74.1846 108.1 73.1623 109.974 73.9032C111.746 74.6038 112.182 76.236 112.327 77.9685C112.559 80.7399 110.32 81.0471 108.155 81.9211Z" fill="black"/>
<path d="M46.2354 86.5305C44.0542 88.5748 45.2823 90.4519 46.2023 92.0877C47.3754 94.1735 49.1745 92.6172 50.6604 92.352C53.0197 91.931 55.4014 90.1387 57.6984 92.1935C60.2661 94.4906 59.408 97.7882 56.0269 99.1759C49.2112 101.973 49.2116 101.973 51.1313 109.125C51.926 112.085 52.9003 114.99 48.5998 116.293C45.5535 117.215 43.5172 116.947 42.493 113.483C39.8136 104.42 37.0018 95.3958 34.1964 86.3707C33.2826 83.4306 34.1798 81.5166 37.1259 80.5986C41.2437 79.3154 45.3682 78.0536 49.4842 76.7648C52.0788 75.9524 54.0525 76.4099 54.9903 79.2653C56.0004 82.3408 54.6781 83.9722 51.766 84.7553C50.0046 85.2289 48.2772 85.8291 46.2354 86.5305Z" fill="black"/>
</svg>
