<svg width="177" height="177" viewBox="0 0 177 177" fill="none" xmlns="http://www.w3.org/2000/svg">
<path d="M174.56 87.3548C167.822 98.9142 161.397 110.211 154.672 121.327C151.263 126.961 152.494 132.93 152.565 138.845C152.588 140.749 154.173 141.156 155.798 141.202C159.73 141.312 160.802 143.68 160.765 147.192C160.682 155.023 160.657 162.856 160.766 170.687C160.825 174.916 158.889 176.852 154.745 176.768C153.912 176.751 153.078 176.776 152.245 176.776C109.586 176.771 66.9275 176.771 24.2686 176.758C15.9074 176.756 15.1698 175.997 15.1636 167.61C15.1588 161.111 15.2203 154.612 15.1468 148.114C15.1013 144.094 16.1549 141.155 20.8998 141.176C22.5609 141.183 24.0025 140.713 23.9805 138.74C23.9111 132.498 24.8436 126.321 21.0533 120.392C14.509 110.155 8.73017 99.4315 2.53956 88.9656C0.789623 86.0072 -0.0174453 82.9895 0.000285731 79.5123C0.111553 57.6835 0.00986778 35.8537 0.10194 14.0248C0.130535 7.24516 4.7462 1.817 11.183 0.436627C17.3793 -0.8922 24.3047 2.57594 26.8969 8.43867C28.3387 11.6998 28.4353 15.2204 28.4402 18.7287C28.4627 34.8922 28.4789 51.0558 28.5244 67.2193C28.5313 69.6643 28.0843 72.3485 31.0643 73.6436C31.4002 73.5536 31.8096 73.5695 32.0084 73.3726C41.6198 63.8548 48.3345 64.0292 57.5971 74.1395C63.4494 80.5275 69.1748 87.0324 75.0627 93.3871C78.4179 97.0083 79.9317 101.082 79.8294 106.071C79.6212 116.231 79.8714 126.401 79.7129 136.563C79.6592 140.002 80.8061 141.318 84.312 141.243C98.6416 140.938 95.823 142.968 96.0724 129.839C96.2211 122.01 96.222 114.173 96.0613 106.345C95.9555 101.19 97.7381 96.9685 101.164 93.2294C106.453 87.4577 111.702 81.6469 116.853 75.7515C127.238 63.864 133.189 63.3913 144.685 73.774C148.019 72.5508 148.064 69.7347 148.063 66.8369C148.052 49.1735 148.003 31.5097 148.11 13.847C148.149 7.26292 152.547 2.04142 158.851 0.520062C164.819 -0.920246 171.624 2.15104 174.558 7.64692C176.092 10.52 176.428 13.6943 176.437 16.8529C176.497 37.8488 176.472 58.845 176.492 79.8412C176.495 82.3873 176.144 84.8225 174.56 87.3548ZM24.8164 111.668C30.1453 118.897 33.036 126.825 31.7533 135.939C31.1571 140.175 33.1109 141.372 37.1576 141.281C47.1417 141.054 57.136 141.096 67.1225 141.258C70.6633 141.316 72.2271 140.361 72.1454 136.495C71.9308 126.344 72.0419 116.185 72.0898 106.03C72.1013 103.583 71.5215 101.401 69.888 99.5835C63.2121 92.1552 56.5461 84.7173 49.7974 77.3554C47.1204 74.4351 43.8105 73.2716 40.6096 76.2645C37.468 79.2021 38.2325 82.4719 40.9357 85.5075C45.1419 90.2309 49.2684 95.0252 53.4553 99.766C55.3316 101.891 57.072 104.155 54.2269 106.592C51.3764 109.035 49.3515 106.867 47.5184 104.805C39.5567 95.8469 31.6856 86.8069 23.6178 77.9458C21.0691 75.1465 20.1607 72.1351 20.1854 68.4363C20.2966 51.7884 20.2391 35.1394 20.2356 18.4908C20.2353 16.9929 20.2384 15.492 20.1493 13.9978C19.9206 10.1641 17.5128 8.1287 14.015 8.07048C10.6623 8.01466 8.53404 10.2929 7.89167 13.5991C7.61015 15.0481 7.75007 16.5849 7.74934 18.0818C7.74131 34.3975 8.19569 50.7302 7.57914 67.0226C7.1866 77.3952 8.83583 86.6167 15.116 95.1139C18.7528 100.035 21.3839 105.699 24.8164 111.668ZM135.998 84.341C137.941 81.0584 138.113 77.8264 134.672 75.5952C131.544 73.5663 128.665 74.7139 126.258 77.3964C119.583 84.8342 112.856 92.224 106.167 99.6487C104.271 101.752 103.771 104.325 103.775 107.071C103.791 116.902 103.874 126.736 103.721 136.565C103.668 139.987 104.819 141.317 108.331 141.262C118.494 141.104 128.664 141.038 138.823 141.284C142.986 141.385 144.684 139.986 144.158 135.86C143.07 127.315 145.609 119.791 150.485 112.84C152.391 110.123 153.571 106.88 155.572 104.25C166.013 90.5269 169.892 75.3431 168.461 58.0487C167.297 43.9805 168.254 29.7397 168.186 15.5758C168.164 11.0175 165.542 7.93925 162.035 7.96595C158.566 7.99241 155.937 11.1757 155.749 15.6177C155.7 16.7821 155.739 17.9503 155.739 19.1167C155.741 35.9471 155.715 52.7776 155.774 69.6078C155.784 72.3796 155.335 74.8188 153.403 76.975C144.955 86.4046 136.591 95.9098 128.159 105.354C126.361 107.369 124.196 108.798 121.725 106.487C119.269 104.19 120.578 102.003 122.372 99.9642C126.773 94.9618 131.155 89.942 135.998 84.341ZM153.043 166.093C153.051 161.603 153.013 157.112 153.085 152.623C153.126 150.11 151.997 148.958 149.507 148.958C131.552 148.962 113.596 148.95 95.6404 148.939C93.5974 148.937 91.9199 149.471 91.8976 151.903C91.8478 157.324 91.8821 162.745 91.8821 167.863C92.8749 168.276 93.1767 168.511 93.4793 168.512C112.27 168.569 131.06 168.603 149.851 168.657C151.262 168.661 152.546 168.569 153.043 166.093ZM75.7313 148.935C72.9014 148.93 70.0716 148.915 67.2417 148.919C54.4251 148.938 41.6074 148.889 28.7927 149.057C26.618 149.086 23.3612 148.261 23.3799 152.354C23.4041 157.621 23.3858 162.888 23.3858 168.381C24.4101 168.473 25.2079 168.609 26.0056 168.608C41.3197 168.599 56.6339 168.599 71.9479 168.543C84.0815 168.499 84.0814 168.467 84.075 156.406C84.071 148.972 84.071 148.972 75.7313 148.935Z" fill="black"/>
<path d="M112.681 67.8282C88.9522 85.3597 58.581 75.4872 50.9864 48.0952C45.1409 27.0122 58.8157 5.48231 81.0499 0.762365C101.74 -3.62966 122.745 11.4753 125.837 32.6914C127.889 46.7759 123.2 58.1573 112.681 67.8282ZM118.294 38.9465C119.453 22.6654 105.215 7.48856 87.0224 7.94703C70.2757 8.36912 57.5015 22.4051 57.701 39.5045C57.8846 55.2337 71.5996 68.8363 87.5796 69.1382C103.598 69.4409 117.368 56.3012 118.294 38.9465Z" fill="black"/>
<path d="M86.7187 14.4736C87.9315 14.3989 89.1895 14.1481 89.4988 14.5787C91.8041 17.7876 94.3263 20.4924 97.7348 22.8075C100.263 24.5245 98.2491 27.4813 95.494 28.3474C93.6532 28.9261 91.5491 28.7004 89.5606 28.7663C87.6086 28.8309 85.6809 29.1438 85.4635 31.4684C85.2608 33.6377 87.1003 34.0489 88.7859 34.4223C89.7583 34.6376 90.7282 34.9072 91.6597 35.2576C99.2661 38.1188 101.318 47.5718 95.368 53.1191C93.3519 54.9989 91.5204 56.5651 91.5888 59.6499C91.6298 61.4941 90.2751 62.6388 88.3198 62.7365C86.1663 62.8441 84.7088 61.7156 84.3378 59.7244C83.9429 57.6056 83.6513 55.8557 80.8909 55.7997C78.728 55.7559 77.5003 54.2036 77.5012 52.1935C77.5023 49.8392 79.2556 48.6495 81.4002 48.3774C83.5365 48.1064 85.7206 48.2365 87.876 48.0819C89.3358 47.9772 90.4608 47.156 90.6716 45.682C90.8985 44.0959 89.7427 43.2735 88.4086 42.824C86.9923 42.3467 85.4898 42.1111 84.097 41.5806C78.7381 39.5398 75.5699 33.1454 78.1138 28.1531C80.4971 23.4757 84.0968 19.445 86.7187 14.4736Z" fill="black"/>
</svg>
