<svg width="177" height="177" viewBox="0 0 177 177" fill="none" xmlns="http://www.w3.org/2000/svg">
<path d="M169.667 15.0101C172.188 19.9876 171.764 25.1521 172.123 30.0413C173.218 44.9641 173.698 59.9309 174.546 74.8734C174.862 80.455 172.776 84.9655 168.975 88.7727C141.917 115.877 114.88 143.004 87.714 170C79.6391 178.024 69.5819 178.291 61.4846 170.361C42.6906 151.955 24.0994 133.338 5.66593 114.57C-2.13961 106.624 -1.77426 96.1952 6.10674 88.292C32.9126 61.4107 59.8746 34.6845 86.5743 7.69843C92.7413 1.46531 99.9412 1.12712 107.776 1.82456C122.675 3.15074 137.583 4.35743 152.488 5.61356C153.317 5.68345 154.246 5.53178 154.96 5.85465C160.18 8.21378 164.029 6.50416 167.44 2.25858C169.245 0.0118799 171.985 -0.989769 174.455 1.29493C177.152 3.79035 175.955 6.37257 173.874 8.72978C172.26 10.5582 169.838 11.8129 169.667 15.0101ZM43.3182 139.243C51.2083 147.138 59.0651 155.068 67.0005 162.918C72.0866 167.949 76.3371 168.107 81.2962 163.169C108.328 136.249 135.287 109.255 162.276 82.2912C164.495 80.0741 165.9 77.485 165.718 74.2918C164.76 57.5201 163.756 40.751 162.757 23.9816C162.707 23.1453 162.548 22.3209 161.067 21.9412C156.951 25.9998 150.64 28.8662 153.384 36.9961C154.086 39.0742 153.595 41.5793 152.754 43.8592C149.757 51.9834 141.529 56.3139 133.028 54.1193C125.639 52.2116 120.434 44.1357 121.63 36.4334C123.034 27.3912 130.115 21.1173 139.246 22.8453C146.442 24.2073 149.448 20.4565 153.51 15.447C150.846 14.9948 148.793 14.4847 146.712 14.3186C132.451 13.1802 118.168 12.2918 103.93 10.9215C99.3523 10.4809 95.967 11.5213 92.7379 14.7684C66.5412 41.1112 40.2336 67.3438 13.9871 93.6372C7.68302 99.9527 7.74021 103.619 14.1934 110.115C23.7042 119.688 33.2705 129.206 43.3182 139.243ZM132.128 34.2809C130.025 37.191 129.83 40.1177 132.222 42.9408C133.953 44.9843 136.182 46.0246 138.879 45.3119C141.873 44.5205 143.781 42.5591 144.296 39.4521C144.75 36.7135 143.692 34.4479 141.416 33.0353C138.43 31.1831 135.407 31.5002 132.128 34.2809Z" fill="black"/>
<path d="M80.1667 87.7589C92.9923 87.7611 105.318 87.758 117.644 87.7709C119.636 87.773 121.646 87.6669 123.553 88.4739C125.427 89.2671 126.481 90.57 126.425 92.6886C126.368 94.8062 125.223 96.229 123.337 96.7541C121.771 97.1905 120.051 97.1909 118.399 97.1927C95.0807 97.2176 71.762 97.2142 48.4433 97.1992C46.9506 97.1982 45.4171 97.2342 43.9751 96.9199C41.7914 96.444 40.5125 94.8746 40.418 92.6531C40.3216 90.3896 41.5207 88.7553 43.7505 88.3082C45.6875 87.9197 47.7035 87.7937 49.6857 87.7838C59.6792 87.7338 69.673 87.7598 80.1667 87.7589Z" fill="black"/>
<path d="M77.1535 106.563C85.0457 103.867 91.035 105.474 94.6861 111.007C98.0618 116.123 97.7355 122.721 93.7546 127.187C90.1687 131.21 85.6676 133.093 80.3318 131.763C74.6032 130.335 71.1224 126.334 70.175 120.649C69.1817 114.688 71.5934 109.94 77.1535 106.563ZM87.1049 120.457C88.4358 118.087 87.4501 116.4 85.4695 115.045C83.9029 113.973 82.3803 114.205 80.9463 115.34C79.486 116.497 78.9393 118.163 79.6368 119.735C81.2609 123.394 83.8223 123.385 87.1049 120.457Z" fill="black"/>
<path d="M93.6839 75.3187C87.6938 80.7684 82.4468 81.612 76.6966 78.2901C71.802 75.4624 69.0596 69.6712 70.0928 64.3445C71.2793 58.2274 75.8343 53.8379 81.9486 53.2604C87.5424 52.7321 92.1659 54.7357 94.9963 59.6971C97.982 64.9309 97.755 70.1631 93.6839 75.3187ZM79.5968 67.899C80.7499 70.4456 82.6969 71.2372 85.2082 70.1357C87.005 69.3475 88.1222 67.8094 87.579 65.7843C87.0259 63.7219 85.4961 62.2529 83.2868 62.4425C80.6046 62.6726 79.2889 64.4308 79.5968 67.899Z" fill="black"/>
</svg>
