<svg width="176" height="167" viewBox="0 0 176 167" fill="none" xmlns="http://www.w3.org/2000/svg">
<path d="M111.282 56.8001C98.5451 69.5348 86.023 81.9847 73.5954 94.5282C70.4891 97.6635 67.1169 99.8129 62.5504 98.9717C60.8311 98.655 59.6765 99.2581 58.5582 100.38C47.7414 111.234 36.9131 122.076 26.1045 132.938C25.9121 133.132 25.921 133.525 25.7374 134.174C60.8116 134.174 95.774 134.174 130.736 134.174C122.558 133.374 116.83 128.906 116.012 121.101C115.229 113.621 115.598 105.849 115.895 98.3019C116.169 91.348 121.512 86.7947 128.823 85.7886C130.816 85.5142 132.025 84.7457 133.283 83.1794C139.59 75.3291 150.828 75.1551 157.141 82.8321C158.636 84.6507 160.171 85.4558 162.457 85.8958C172.793 87.8849 177.953 97.7515 173.913 107.465C173.394 108.715 173.064 109.757 173.586 111.224C177.89 123.314 172.623 131.984 160.016 134.493C161.784 134.493 163.552 134.482 165.32 134.496C168.897 134.523 170.72 136.236 169.903 139.851C168.879 144.387 167.925 148.987 165.838 153.188C161.772 161.373 154.984 166.025 145.959 166.072C105.48 166.279 64.9999 166.246 24.5208 166.113C14.0365 166.079 6.24273 159.995 2.85086 149.958C1.78756 146.812 0.818968 143.604 0.177672 140.352C-0.520693 136.81 0.800505 134.066 4.83807 134.62C11.4219 135.523 15.614 132.358 19.8832 127.878C29.9925 117.271 40.5253 107.066 50.9447 96.7562C53.1483 94.5759 54.8257 92.5395 54.1761 89.0043C53.5644 85.6756 55.4956 82.9144 57.8046 80.6011C75.9258 62.4466 94.0177 44.2625 112.224 26.1938C117.181 21.2747 123.651 21.1209 127.779 25.3729C132.13 29.8532 131.743 36.2154 126.71 41.3371C121.69 46.4466 116.595 51.4821 111.282 56.8001ZM151.342 99.8788C151.342 99.8788 151.376 99.9108 150.966 99.3142C148.835 97.1692 149.347 94.8828 150.408 92.4183C151.369 90.1848 151.799 87.7821 149.223 86.2447C146.582 84.6684 143.77 84.6963 141.217 86.4364C139.008 87.9431 139.356 90.2027 140.209 92.2851C141.269 94.8702 142.368 97.3659 139.124 99.1854C136.016 100.929 134.589 98.5236 133.064 96.5682C131.468 94.5214 129.525 93.344 127.029 94.6231C124.43 95.9555 123.292 98.4948 123.267 101.251C123.24 104.143 125.53 105.133 127.979 105.461C130.643 105.817 133.17 106.496 133.251 109.639C133.337 113.006 130.383 113.305 127.961 113.774C125.51 114.249 123.266 114.946 123.207 117.907C123.146 121.005 124.859 123.26 127.407 124.827C129.977 126.407 131.402 124.303 132.88 122.827C134.623 121.086 136.041 118.554 139.069 120.155C142.37 121.899 141.031 124.442 140.159 127.055C138.749 131.276 140.355 133.446 144.735 133.718C150.181 134.056 152.012 131.485 150.128 125.868C149.377 123.628 148.908 121.629 151.362 120.233C153.725 118.889 155.477 119.961 156.966 121.832C157.276 122.223 157.617 122.589 157.932 122.976C160.651 126.325 163.291 125.711 165.758 122.725C169.27 118.475 168.131 115.215 162.597 113.704C160.178 113.043 157.298 112.802 157.503 109.405C157.676 106.538 159.979 105.802 162.489 105.521C164.944 105.246 167.289 104.384 167.453 101.543C167.626 98.5509 166.329 95.9488 163.532 94.5523C160.939 93.2579 159.061 94.7631 157.541 96.7073C155.936 98.761 154.245 100.512 151.342 99.8788ZM89.8564 154.164C65.2253 154.164 40.5944 154.164 15.9633 154.164C19.6463 158.267 24.1486 158.44 28.6222 158.449C51.2763 158.498 73.9305 158.476 96.5847 158.478C112.076 158.479 127.568 158.389 143.058 158.511C152.62 158.587 161.279 151.65 159.999 142.597C109.842 142.597 59.6687 142.597 9.40161 142.597C9.33847 147.344 12.5587 146.472 15.0129 146.475C51.3262 146.514 87.6394 146.5 123.953 146.529C126.725 146.531 130.325 146.015 130.426 150.079C130.534 154.423 126.824 154.123 123.838 154.135C112.844 154.182 101.85 154.16 89.8564 154.164ZM82.8921 73.9099C92.2855 64.7774 101.679 55.6448 110.917 46.6636C107.837 41.6276 105.808 43.8937 103.71 45.9869C90.7576 58.9119 77.7765 71.8087 64.8479 84.7577C63.4277 86.1802 60.7641 87.8336 63.1652 90.0133C65.2916 91.9438 67.1039 89.6494 68.6141 88.16C73.2337 83.604 77.8015 78.9955 82.8921 73.9099ZM117.454 39.0992C119.053 37.4795 120.765 35.9535 122.216 34.2108C123.399 32.7903 123.014 30.9924 121.253 30.7468C117.762 30.26 116.154 33.3764 114.521 35.5931C113.03 37.6157 114.973 38.7021 117.454 39.0992Z" fill="black"/>
<path d="M138.704 2.18086C141.016 0.178828 143.233 -1.11316 145.498 1.34587C147.783 3.82613 146.294 5.96819 144.326 7.76892C141.408 10.4403 142.099 12.6071 144.575 15.3129C150.036 21.2803 149.179 28.6708 142.894 32.9095C141.068 34.1414 139.269 34.6647 137.545 32.814C135.932 31.082 135.775 28.9985 137.457 27.471C140.999 24.2542 139.889 21.8549 137.103 18.7327C132.374 13.4322 132.98 8.65465 138.704 2.18086Z" fill="black"/>
<path d="M160.196 50.6598C157.764 51.6245 155.983 51.3871 154.829 49.1658C153.911 47.4004 154.399 45.7939 155.722 44.6445C158.966 41.8289 158.07 39.5474 155.55 36.6866C150.09 30.4875 151.194 23.3757 157.944 18.741C159.787 17.4764 161.619 17.034 163.357 18.7226C165.091 20.4065 165.097 22.6847 163.456 24.0663C159.065 27.7623 160.508 30.4636 163.753 34.1704C168.323 39.3886 166.947 44.6875 160.196 50.6598Z" fill="black"/>
<path d="M143.783 148.4C144.899 151.319 143.725 152.949 141.411 153.761C139.822 154.318 138.465 153.496 137.626 152.107C136.776 150.702 136.843 149.151 137.968 147.966C139.785 146.05 141.734 146.213 143.783 148.4Z" fill="black"/>
<path d="M151.322 99.8664C157.833 105.751 158.352 113.58 152.522 118.23C148.372 121.539 142.998 121.644 138.703 118.499C134.85 115.677 133.199 110.526 134.731 106.103C136.493 101.016 140.785 98.1705 146.275 98.6201C147.732 98.7394 149.153 99.3003 150.983 99.7845C151.376 99.9105 151.342 99.8784 151.322 99.8664ZM147.864 108.07C146.764 106.533 145.379 105.777 143.658 106.979C142.439 107.83 142.277 109.188 142.709 110.558C143.176 112.04 144.294 112.697 145.775 112.451C147.853 112.106 148.323 110.615 147.864 108.07Z" fill="black"/>
</svg>
