<?xml version="1.0" encoding="UTF-8"?> <svg xmlns="http://www.w3.org/2000/svg" width="256" height="61" viewBox="0 0 256 61" fill="none"><path d="M74.91 47V14.34H88.526C89.9673 14.34 91.286 14.6467 92.482 15.26C93.678 15.8427 94.7207 16.64 95.61 17.652C96.4993 18.6333 97.1893 19.7527 97.68 21.01C98.1707 22.2367 98.416 23.494 98.416 24.782C98.416 26.5607 98.0173 28.2627 97.22 29.888C96.4227 31.4827 95.3033 32.786 93.862 33.798C92.4207 34.7793 90.734 35.27 88.802 35.27H79.05V47H74.91ZM79.05 31.59H88.572C89.7067 31.59 90.688 31.2833 91.516 30.67C92.3747 30.0567 93.034 29.2287 93.494 28.186C93.9847 27.1433 94.23 26.0087 94.23 24.782C94.23 23.494 93.954 22.344 93.402 21.332C92.85 20.2893 92.1293 19.4767 91.24 18.894C90.3507 18.3113 89.3693 18.02 88.296 18.02H79.05V31.59ZM111.17 14.34H114.666L128.006 47H123.59L119.726 37.432H106.018L102.2 47H97.7842L111.17 14.34ZM118.806 34.212L112.918 19.124L106.846 34.212H118.806ZM152.817 18.02H141.547V47H137.407V18.02H126.137V14.34H152.817V18.02ZM157.521 47V14.34H171.505C172.947 14.34 174.265 14.6467 175.461 15.26C176.657 15.8427 177.7 16.64 178.589 17.652C179.479 18.6333 180.169 19.7527 180.659 21.01C181.15 22.2367 181.395 23.494 181.395 24.782C181.395 26.2847 181.104 27.7107 180.521 29.06C179.969 30.4093 179.172 31.5593 178.129 32.51C177.117 33.4607 175.921 34.12 174.541 34.488L182.453 47H177.761L170.309 35.27H161.661V47H157.521ZM161.661 31.59H171.551C172.686 31.59 173.667 31.2833 174.495 30.67C175.354 30.026 176.013 29.1827 176.473 28.14C176.964 27.0973 177.209 25.978 177.209 24.782C177.209 23.5553 176.933 22.436 176.381 21.424C175.829 20.3813 175.109 19.5533 174.219 18.94C173.33 18.3267 172.349 18.02 171.275 18.02H161.661V31.59ZM197.69 14.34H201.186L214.526 47H210.11L206.246 37.432H192.538L188.72 47H184.304L197.69 14.34ZM205.326 34.212L199.438 19.124L193.366 34.212H205.326ZM247.129 47V22.068L236.365 41.25H233.835L223.025 22.068V47H218.885V14.34H223.255L235.077 35.546L246.945 14.34H251.269V47H247.129Z" fill="black"></path><path d="M61 30.5C61 47.3447 47.3447 61 30.5 61C13.6553 61 0 47.3447 0 30.5C0 13.6553 13.6553 0 30.5 0C47.3447 0 61 13.6553 61 30.5Z" fill="#23AD30"></path><path fill-rule="evenodd" clip-rule="evenodd" d="M47.1897 18.6438C49.2517 21.2843 50.4201 24.748 50.4201 29.2187C50.4201 33.8816 49.2185 37.4064 47.0947 40.0196C44.9801 42.6216 42.0517 44.1961 38.8215 45.1532C33.3896 46.7627 26.7815 46.7 21.0956 46.6461L21.0941 46.6461C20.5351 46.6408 19.9846 46.6355 19.4454 46.632L19.4454 50.7194L17 50.7194L17 46.6276L17 42.6134L17 11L18.2227 11L18.3431 11C24.8964 10.9999 32.8093 10.9998 39.0917 13.1943C42.2825 14.3088 45.1371 16.0151 47.1897 18.6438ZM26.7213 13.5761C28.2261 13.6523 29.7215 13.768 31.1822 13.9437L31.3687 29.4468L26.9394 34.0765L26.7213 13.5761ZM33.6417 14.3064L33.7933 26.9123L42.6411 17.6641C41.3689 16.7666 39.9021 16.0523 38.2805 15.4859C36.8247 14.9774 35.2657 14.5946 33.6417 14.3064ZM44.5028 19.26L35.5285 28.6405L47.9742 29.3812C47.9746 29.3272 47.9747 29.273 47.9747 29.2187C47.9747 25.1872 46.93 22.2745 45.2575 20.1326C45.0201 19.8285 44.7683 19.5378 44.5028 19.26ZM28.4463 36.0433L33.3148 30.9545L47.8241 31.818C47.6251 33.4459 47.2353 34.8421 46.6949 36.0433L28.4463 36.0433ZM24.2741 13.4839L24.5994 36.5224L19.4454 41.9097L19.4454 13.4298C21.0289 13.4319 22.649 13.4413 24.2741 13.4839ZM26.1107 38.4847L20.6323 44.211L21.2016 44.216C26.9132 44.2659 33.0788 44.3198 38.1226 42.8254C41.0488 41.9584 43.483 40.5966 45.192 38.4937L45.1994 38.4847L26.1107 38.4847Z" fill="white"></path></svg> 